<svg xmlns="http://www.w3.org/2000/svg" xmlns:xlink="http://www.w3.org/1999/xlink" viewBox="0,0,255.98958,255.98958" width="80px" height="80px" fill-rule="nonzero"><g fill="none" fill-rule="nonzero" stroke="none" stroke-width="1" stroke-linecap="butt" stroke-linejoin="miter" stroke-miterlimit="10" stroke-dasharray="" stroke-dashoffset="0" font-family="none" font-weight="none" font-size="none" text-anchor="none" style="mix-blend-mode: normal"><g transform="scale(3.2,3.2)"><path d="M47.011,51.718l1.489,1.489v-12l2,2v-21.477l-11,1.722v24.666l1.691,3.382h-10.382l1.691,-3.382v-21.462l-0.8,0.6c-1.82,1.365 -5.398,2.714 -7.805,3.229l-0.395,0.084v13.549l1.691,3.382h-10.382l1.691,-3.382v-13.25l-0.226,-0.147c-0.704,-0.462 -1.467,-0.936 -2.215,-1.401c-1.752,-1.09 -3.738,-2.325 -4.156,-2.953c-0.604,-0.759 -1.009,-1.431 -1.295,-2.155c1.066,-0.654 3.055,-1.804 4.488,-2.387c-0.136,0.138 -0.277,0.272 -0.422,0.411c-0.575,0.55 -1.229,1.174 -1.778,2.155l-0.149,0.267l0.17,0.255c0.4,0.6 0.898,0.977 1.376,1.295c1.331,0.832 3.433,2.211 3.433,2.211l0.774,0.508v-21.045l-1.691,-3.382h10.383l-1.692,3.382v20.759l0.621,-0.155c0.779,-0.195 6.534,-3.41 8.191,-4.734l0.188,-0.15v-17.72l-1.691,-3.382h10.383l-1.692,3.382v14.67l11,-1.081v-6.971h7v5.485l0.647,-0.199c1.476,-0.454 3.07,-0.721 4.126,-0.897c0.468,-0.079 0.83,-0.141 1.035,-0.191l0.054,-0.014l0.049,-0.024c0.135,-0.067 0.519,-0.14 1.07,-0.156c0.913,1.091 1.74,2.307 2.541,3.484c0.86,1.264 1.751,2.571 2.76,3.749c0.114,0.154 0.261,0.334 0.409,0.517c0.383,0.47 0.778,0.955 0.994,1.492c0.307,0.617 0.384,1.153 0.253,1.676l-0.012,0.049l-0.003,0.051c-0.131,3.016 -0.326,5.195 -0.574,7.954l-0.194,2.187c-0.055,0.33 -0.213,0.987 -0.283,1.272c-1.015,0.97 -2.04,1.276 -3.567,1.734l-0.105,0.031c-0.694,0.231 -2.188,0.518 -4.207,0.806c-0.104,-0.005 -0.215,-0.017 -0.258,-0.04c-1.034,-1.038 -1.795,-1.957 -2.601,-2.93c-0.394,-0.477 -0.8,-0.966 -1.256,-1.492l-0.878,-1.014v12.763l-2,-2v14l-2,-2v15.637zM61.593,39.361l0.384,0.04c0.59,0 2.523,-1.68 2.523,-2.192v-17.209c0,-0.507 -0.439,-0.93 -0.701,-1.183c-0.369,-0.367 -0.705,-0.367 -0.906,-0.367h-0.215l-0.048,0.01c-0.317,0.063 -0.873,0.136 -1.52,0.222c-1.021,0.135 -2.293,0.303 -3.219,0.509l-0.391,0.086v15.963l0.139,0.146c0.952,0.996 2.248,2.323 3.857,3.783z" fill="#ffffff"></path><path d="M40.382,3l-1.276,2.553l-0.106,0.211v0.236v14v1.103l1.098,-0.108l10,-0.983l0.902,-0.088v-0.907v-6.017h6v4.308v1.354l1.294,-0.398c1.443,-0.444 3.018,-0.708 4.059,-0.882c0.488,-0.082 0.841,-0.141 1.077,-0.2l0.099,-0.023l0.098,-0.049c0.077,-0.032 0.303,-0.074 0.628,-0.096c0.836,1.023 1.607,2.155 2.354,3.254c0.862,1.267 1.754,2.577 2.773,3.77c0.132,0.175 0.275,0.35 0.42,0.528c0.376,0.461 0.732,0.897 0.919,1.365l0.015,0.039l0.019,0.037c0.234,0.469 0.3,0.892 0.199,1.293l-0.024,0.098l-0.004,0.101c-0.131,3.01 -0.327,5.189 -0.575,7.947c-0.061,0.676 -0.124,1.38 -0.19,2.133c-0.047,0.276 -0.159,0.756 -0.239,1.091c-0.891,0.809 -1.805,1.083 -3.254,1.517l-0.126,0.038c-0.656,0.219 -2.091,0.493 -4.047,0.774c-0.005,0 -0.009,0 -0.014,0c-0.545,-0.552 -1.012,-1.07 -1.452,-1.58c0.048,0.044 0.096,0.088 0.145,0.131c0.201,0.221 0.49,0.351 0.804,0.351c0.797,0 3.023,-1.845 3.023,-2.692v-17.209c0,-0.717 -0.553,-1.251 -0.85,-1.538l-0.055,-0.053c-0.458,-0.458 -0.98,-0.458 -1.203,-0.458h-0.165h-0.099l-0.097,0.019c-0.292,0.058 -0.875,0.135 -1.491,0.217c-1.03,0.136 -2.312,0.305 -3.257,0.516l-0.784,0.173v0.802v15.012v2.68v10.216l-0.293,-0.293l-1.707,-1.707v2.414v11.586l-0.293,-0.293l-1.707,-1.707v2.414v10.86l-4.978,-17.424l0.978,0.978v-2.414v-9.586l0.293,0.293l1.707,1.707v-2.414v-19.685v-1.169l-1.155,0.181l-10,1.565l-0.845,0.133v0.856v24.119v0.236l0.106,0.211l1.276,2.553h-8.764l1.276,-2.553l0.106,-0.211v-0.236v-20.344v-2l-1.6,1.2c-1.764,1.323 -5.254,2.635 -7.609,3.14l-0.791,0.17v0.808v13.026v0.236l0.106,0.211l1.276,2.553h-8.764l1.276,-2.553l0.106,-0.211v-0.236v-12.861v-0.54l-0.452,-0.296c-0.709,-0.465 -1.476,-0.942 -2.23,-1.411c-1.536,-0.956 -3.641,-2.265 -3.999,-2.803l-0.024,-0.036l-0.027,-0.034c-0.444,-0.556 -0.776,-1.072 -1.028,-1.607c0.504,-0.303 1.075,-0.632 1.653,-0.949c-0.148,0.208 -0.292,0.435 -0.432,0.683l-0.299,0.534l0.34,0.509c0.448,0.671 0.992,1.086 1.539,1.45c1.297,0.811 3.39,2.183 3.411,2.197l1.548,1.016v-1.852v-20v-0.236l-0.106,-0.211l-1.276,-2.553h8.764l-1.276,2.553l-0.106,0.211v0.236v20v1.281l1.243,-0.311c0.926,-0.232 6.765,-3.535 8.382,-4.829l0.375,-0.3v-0.481v-17.36v-0.236l-0.106,-0.211l-1.276,-2.553h8.764M42,2h-12l2,4v17.36c-1.652,1.322 -7.339,4.475 -8,4.64v-20l2,-4h-12l2,4v20c0,0 -2.108,-1.383 -3.43,-2.209c-0.496,-0.33 -0.906,-0.661 -1.237,-1.157c0.848,-1.514 1.951,-2.108 2.714,-3.139c0.165,0 0,-0.33 0,-0.496c-1.817,0.331 -6.047,3.001 -6.047,3.001c0.33,0.991 0.826,1.817 1.487,2.643c0.661,0.991 3.968,2.828 6.513,4.496v12.861l-2,4h12l-2,-4v-13.026c2.313,-0.496 6.017,-1.831 8,-3.318v20.344l-2,4h12l-2,-4v-24.12l10,-1.565v19.685l-2,-2v12l-2,-2l8,28v-18l2,2v-14l2,2v-12.63c1.4,1.614 2.315,2.879 3.901,4.465c0.165,0.165 0.496,0.165 0.661,0.165c1.156,-0.165 3.304,-0.496 4.296,-0.826c1.652,-0.496 2.809,-0.826 3.965,-1.983c0,0 0.253,-1.008 0.33,-1.487c0.33,-3.8 0.605,-6.363 0.771,-10.163c0.165,-0.661 0.055,-1.322 -0.275,-1.983c-0.33,-0.826 -0.991,-1.487 -1.487,-2.148c-1.983,-2.313 -3.47,-5.098 -5.452,-7.411c-0.496,0 -1.192,0.047 -1.522,0.212c-0.661,0.165 -3.04,0.436 -5.187,1.096v-5.307h-8v7.017l-10.001,0.983v-14l2,-4zM61.977,38.901c-0.036,0 -0.062,-0.013 -0.076,-0.04c-1.64,-1.484 -2.968,-2.845 -3.901,-3.821v-15.362c1.487,-0.33 3.901,-0.563 4.727,-0.728h0.165c0.165,0 0.33,0 0.496,0.165c0.166,0.165 0.612,0.555 0.612,0.885c0,3.009 0,17.209 0,17.209c0,0.151 -1.626,1.692 -2.023,1.692z" fill="#303f7e"></path></g></g></svg>